<?xml version="1.0" encoding="UTF-8" standalone="no"?>
<!-- Generator: Gravit.io -->
<svg xmlns="http://www.w3.org/2000/svg" xmlns:xlink="http://www.w3.org/1999/xlink" style="isolation:isolate" viewBox="0 0 800 380" width="800pt" height="380pt"><defs><clipPath id="_clipPath_dH64FFtwtRbQzLKNz74KyFdD9N8wjSHW"><rect width="800" height="380"/></clipPath></defs><g clip-path="url(#_clipPath_dH64FFtwtRbQzLKNz74KyFdD9N8wjSHW)"><rect x="119" y="66" width="78" height="35" transform="matrix(1,0,0,1,0,0)" fill="rgb(255,255,255)" vector-effect="non-scaling-stroke" stroke-width="1" stroke="rgb(0,0,0)" stroke-linejoin="miter" stroke-linecap="square" stroke-miterlimit="2"/><text transform="matrix(1,0,0,1,137.518,79.984)" style="font-family:'Open Sans';font-weight:400;font-size:12px;font-style:normal;fill:#000000;stroke:none;">Dátový </text><text transform="matrix(1,0,0,1,139.234,96.326)" style="font-family:'Open Sans';font-weight:400;font-size:12px;font-style:normal;fill:#000000;stroke:none;">model</text><rect x="258" y="67" width="78" height="35" transform="matrix(1,0,0,1,0,0)" fill="rgb(255,255,255)" vector-effect="non-scaling-stroke" stroke-width="1" stroke="rgb(0,0,0)" stroke-linejoin="miter" stroke-linecap="square" stroke-miterlimit="2"/><text transform="matrix(1,0,0,1,263.111,80.984)" style="font-family:'Open Sans';font-weight:400;font-size:12px;font-style:normal;fill:#000000;stroke:none;">Mechanický</text><text transform="matrix(1,0,0,1,278.234,97.326)" style="font-family:'Open Sans';font-weight:400;font-size:12px;font-style:normal;fill:#000000;stroke:none;">model</text><line x1="43" y1="83.83" x2="114.519" y2="83.83" vector-effect="non-scaling-stroke" stroke-width="1" stroke="rgb(0,0,0)" stroke-linejoin="miter" stroke-linecap="square" stroke-miterlimit="3"/><polygon points="119,83.5,114.519,86.83,114.519,80.17" fill="rgb(0,0,0)" vector-effect="non-scaling-stroke" stroke-width="1" stroke="rgb(0,0,0)" stroke-linejoin="miter" stroke-linecap="square" stroke-miterlimit="3"/><line x1="197" y1="83.83" x2="253.337" y2="83.83" vector-effect="non-scaling-stroke" stroke-width="1" stroke="rgb(0,0,0)" stroke-linejoin="miter" stroke-linecap="square" stroke-miterlimit="3"/><polygon points="257,83.5,253.337,86.83,253.337,80.17" fill="rgb(0,0,0)" vector-effect="non-scaling-stroke" stroke-width="1" stroke="rgb(0,0,0)" stroke-linejoin="miter" stroke-linecap="square" stroke-miterlimit="3"/><line x1="337" y1="83.5" x2="387.394" y2="83.83" vector-effect="non-scaling-stroke" stroke-width="1" stroke="rgb(0,0,0)" stroke-linejoin="miter" stroke-linecap="square" stroke-miterlimit="3"/><polygon points="387.875,83.5,383.394,86.83,383.394,80.17" fill="rgb(0,0,0)" vector-effect="non-scaling-stroke" stroke-width="1" stroke="rgb(0,0,0)" stroke-linejoin="miter" stroke-linecap="square" stroke-miterlimit="3"/><line x1="297.058" y1="33" x2="297.208" y2="61.541" vector-effect="non-scaling-stroke" stroke-width="1" stroke="rgb(0,0,0)" stroke-linejoin="miter" stroke-linecap="square" stroke-miterlimit="3"/><polygon points="297.058,66,293.67,61.562,300.33,61.476" fill="rgb(0,0,0)" vector-effect="non-scaling-stroke" stroke-width="1" stroke="rgb(0,0,0)" stroke-linejoin="miter" stroke-linecap="square" stroke-miterlimit="3"/><line x1="297" y1="33" x2="87" y2="33" vector-effect="non-scaling-stroke" stroke-width="1" stroke="rgb(0,0,0)" stroke-linejoin="miter" stroke-linecap="square" stroke-miterlimit="3"/><line x1="87" y1="33" x2="87" y2="83.83" vector-effect="non-scaling-stroke" stroke-width="1" stroke="rgb(0,0,0)" stroke-linejoin="miter" stroke-linecap="square" stroke-miterlimit="3"/><text transform="matrix(1,0,0,1,365,101.302)" style="font-family:'Open Sans';font-weight:400;font-size:12px;font-style:normal;fill:#000000;stroke:none;">Výstupy</text><text transform="matrix(1,0,0,1,24,99.656)" style="font-family:'Open Sans';font-weight:400;font-size:12px;font-style:normal;fill:#000000;stroke:none;">Vstupy</text><text transform="matrix(1,0,0,1,166.888,129.826)" style="font-family:'Open Sans';font-weight:400;font-size:12px;font-style:normal;fill:#000000;stroke:none;">a)</text><rect x="580" y="105.83" width="78" height="35" transform="matrix(1,0,0,1,0,0)" fill="rgb(255,255,255)" vector-effect="non-scaling-stroke" stroke-width="1" stroke="rgb(0,0,0)" stroke-linejoin="miter" stroke-linecap="square" stroke-miterlimit="2"/><text transform="matrix(1,0,0,1,598.518,119.815)" style="font-family:'Open Sans';font-weight:400;font-size:12px;font-style:normal;fill:#000000;stroke:none;">Dátový </text><text transform="matrix(1,0,0,1,600.234,136.156)" style="font-family:'Open Sans';font-weight:400;font-size:12px;font-style:normal;fill:#000000;stroke:none;">model</text><rect x="580" y="44.041" width="78" height="35" transform="matrix(1,0,0,1,0,0)" fill="rgb(255,255,255)" vector-effect="non-scaling-stroke" stroke-width="1" stroke="rgb(0,0,0)" stroke-linejoin="miter" stroke-linecap="square" stroke-miterlimit="2"/><text transform="matrix(1,0,0,1,585.111,58.026)" style="font-family:'Open Sans';font-weight:400;font-size:12px;font-style:normal;fill:#000000;stroke:none;">Mechanický</text><text transform="matrix(1,0,0,1,600.234,74.368)" style="font-family:'Open Sans';font-weight:400;font-size:12px;font-style:normal;fill:#000000;stroke:none;">model</text><line x1="526" y1="123.875" x2="575.544" y2="124.325" vector-effect="non-scaling-stroke" stroke-width="1" stroke="rgb(0,0,0)" stroke-linejoin="miter" stroke-linecap="square" stroke-miterlimit="3"/><polygon points="580,123.875,575.613,127.329,575.428,120.671" fill="rgb(0,0,0)" vector-effect="non-scaling-stroke" stroke-width="1" stroke="rgb(0,0,0)" stroke-linejoin="miter" stroke-linecap="square" stroke-miterlimit="3"/><line x1="526" y1="62.546" x2="575.544" y2="62.996" vector-effect="non-scaling-stroke" stroke-width="1" stroke="rgb(0,0,0)" stroke-linejoin="miter" stroke-linecap="square" stroke-miterlimit="3"/><polygon points="580,62.546,575.613,66,575.428,59.342" fill="rgb(0,0,0)" vector-effect="non-scaling-stroke" stroke-width="1" stroke="rgb(0,0,0)" stroke-linejoin="miter" stroke-linecap="square" stroke-miterlimit="3"/><line x1="526" y1="62.771" x2="526" y2="124" vector-effect="non-scaling-stroke" stroke-width="1" stroke="rgb(0,0,0)" stroke-linejoin="miter" stroke-linecap="square" stroke-miterlimit="3"/><line x1="472" y1="93.476" x2="526" y2="93.476" vector-effect="non-scaling-stroke" stroke-width="1" stroke="rgb(0,0,0)" stroke-linejoin="miter" stroke-linecap="square" stroke-miterlimit="3"/><text transform="matrix(1,0,0,1,456,82.302)" style="font-family:'Open Sans';font-weight:400;font-size:12px;font-style:normal;fill:#000000;stroke:none;">Vstupy</text><circle vector-effect="non-scaling-stroke" cx="687.5" cy="93.3856490865596" r="5.5" fill="rgb(255,255,255)" stroke-width="1" stroke="rgb(0,0,0)" stroke-linejoin="miter" stroke-linecap="square" stroke-miterlimit="3"/><line x1="687.175" y1="63.738" x2="687.175" y2="82.374" vector-effect="non-scaling-stroke" stroke-width="1" stroke="rgb(0,0,0)" stroke-linejoin="miter" stroke-linecap="square" stroke-miterlimit="3"/><polygon points="687.625,86.83,684.171,82.443,690.829,82.258" fill="rgb(0,0,0)" vector-effect="non-scaling-stroke" stroke-width="1" stroke="rgb(0,0,0)" stroke-linejoin="miter" stroke-linecap="square" stroke-miterlimit="3"/><line x1="658" y1="62.771" x2="687.5" y2="62.771" vector-effect="non-scaling-stroke" stroke-width="1" stroke="rgb(0,0,0)" stroke-linejoin="miter" stroke-linecap="square" stroke-miterlimit="3"/><line x1="687.825" y1="122.83" x2="687.825" y2="104.195" vector-effect="non-scaling-stroke" stroke-width="1" stroke="rgb(0,0,0)" stroke-linejoin="miter" stroke-linecap="square" stroke-miterlimit="3"/><polygon points="687.375,99.738,690.829,104.125,684.171,104.31" fill="rgb(0,0,0)" vector-effect="non-scaling-stroke" stroke-width="1" stroke="rgb(0,0,0)" stroke-linejoin="miter" stroke-linecap="square" stroke-miterlimit="3"/><line x1="687.825" y1="124" x2="658" y2="124.325" vector-effect="non-scaling-stroke" stroke-width="1" stroke="rgb(0,0,0)" stroke-linejoin="miter" stroke-linecap="square" stroke-miterlimit="3"/><line x1="693" y1="93.386" x2="729.544" y2="93.711" vector-effect="non-scaling-stroke" stroke-width="1" stroke="rgb(0,0,0)" stroke-linejoin="miter" stroke-linecap="square" stroke-miterlimit="3"/><polygon points="734,93.261,729.613,96.714,729.428,90.057" fill="rgb(0,0,0)" vector-effect="non-scaling-stroke" stroke-width="1" stroke="rgb(0,0,0)" stroke-linejoin="miter" stroke-linecap="square" stroke-miterlimit="3"/><text transform="matrix(1,0,0,1,734.292,85.868)" style="font-family:'Open Sans';font-weight:400;font-size:12px;font-style:normal;fill:#000000;stroke:none;">Upravené</text><text transform="matrix(1,0,0,1,740.151,102.209)" style="font-family:'Open Sans';font-weight:400;font-size:12px;font-style:normal;fill:#000000;stroke:none;">výstupy</text><text transform="matrix(1,0,0,1,612.548,169.235)" style="font-family:'Open Sans';font-weight:400;font-size:12px;font-style:normal;fill:#000000;stroke:none;">b)</text><rect x="258" y="215" width="78" height="35" transform="matrix(1,0,0,1,0,0)" fill="rgb(255,255,255)" vector-effect="non-scaling-stroke" stroke-width="1" stroke="rgb(0,0,0)" stroke-linejoin="miter" stroke-linecap="square" stroke-miterlimit="2"/><text transform="matrix(1,0,0,1,277.847,228.984)" style="font-family:'Open Sans';font-weight:400;font-size:12px;font-style:normal;fill:#000000;stroke:none;">Dátový </text><text transform="matrix(1,0,0,1,271.024,245.326)" style="font-family:'Open Sans';font-weight:400;font-size:12px;font-style:normal;fill:#000000;stroke:none;">model (1)</text><rect x="331.875" y="276" width="78" height="35" transform="matrix(1,0,0,1,0,0)" fill="rgb(255,255,255)" vector-effect="non-scaling-stroke" stroke-width="1" stroke="rgb(0,0,0)" stroke-linejoin="miter" stroke-linecap="square" stroke-miterlimit="2"/><text transform="matrix(1,0,0,1,351.722,290.984)" style="font-family:'Open Sans';font-weight:400;font-size:12px;font-style:normal;fill:#000000;stroke:none;">Dátový </text><text transform="matrix(1,0,0,1,344.899,307.326)" style="font-family:'Open Sans';font-weight:400;font-size:12px;font-style:normal;fill:#000000;stroke:none;">model (2)</text><rect x="407" y="215" width="78" height="35" transform="matrix(1,0,0,1,0,0)" fill="rgb(255,255,255)" vector-effect="non-scaling-stroke" stroke-width="1" stroke="rgb(0,0,0)" stroke-linejoin="miter" stroke-linecap="square" stroke-miterlimit="2"/><text transform="matrix(1,0,0,1,412.111,227.984)" style="font-family:'Open Sans';font-weight:400;font-size:12px;font-style:normal;fill:#000000;stroke:none;">Mechanický</text><text transform="matrix(1,0,0,1,427.234,244.326)" style="font-family:'Open Sans';font-weight:400;font-size:12px;font-style:normal;fill:#000000;stroke:none;">model</text><circle vector-effect="non-scaling-stroke" cx="535.5" cy="264" r="5.5" fill="rgb(255,255,255)" stroke-width="1" stroke="rgb(0,0,0)" stroke-linejoin="miter" stroke-linecap="square" stroke-miterlimit="3"/><line x1="535.175" y1="232.5" x2="535.175" y2="253.374" vector-effect="non-scaling-stroke" stroke-width="1" stroke="rgb(0,0,0)" stroke-linejoin="miter" stroke-linecap="square" stroke-miterlimit="3"/><polygon points="535.625,257.83,532.171,253.443,538.829,253.258" fill="rgb(0,0,0)" vector-effect="non-scaling-stroke" stroke-width="1" stroke="rgb(0,0,0)" stroke-linejoin="miter" stroke-linecap="square" stroke-miterlimit="3"/><line x1="485" y1="232.5" x2="535.5" y2="232.5" vector-effect="non-scaling-stroke" stroke-width="1" stroke="rgb(0,0,0)" stroke-linejoin="miter" stroke-linecap="square" stroke-miterlimit="3"/><line x1="535.825" y1="293.83" x2="535.825" y2="275.195" vector-effect="non-scaling-stroke" stroke-width="1" stroke="rgb(0,0,0)" stroke-linejoin="miter" stroke-linecap="square" stroke-miterlimit="3"/><polygon points="535.375,270.738,538.829,275.125,532.171,275.31" fill="rgb(0,0,0)" vector-effect="non-scaling-stroke" stroke-width="1" stroke="rgb(0,0,0)" stroke-linejoin="miter" stroke-linecap="square" stroke-miterlimit="3"/><line x1="535.5" y1="293.83" x2="409.875" y2="293.83" vector-effect="non-scaling-stroke" stroke-width="1" stroke="rgb(0,0,0)" stroke-linejoin="miter" stroke-linecap="square" stroke-miterlimit="3"/><line x1="337" y1="233.825" x2="402.544" y2="233.825" vector-effect="non-scaling-stroke" stroke-width="1" stroke="rgb(0,0,0)" stroke-linejoin="miter" stroke-linecap="square" stroke-miterlimit="3"/><polygon points="407,233.375,402.613,236.829,402.428,230.171" fill="rgb(0,0,0)" vector-effect="non-scaling-stroke" stroke-width="1" stroke="rgb(0,0,0)" stroke-linejoin="miter" stroke-linecap="square" stroke-miterlimit="3"/><line x1="541.125" y1="264" x2="577.669" y2="264.325" vector-effect="non-scaling-stroke" stroke-width="1" stroke="rgb(0,0,0)" stroke-linejoin="miter" stroke-linecap="square" stroke-miterlimit="3"/><polygon points="582.125,263.875,577.738,267.329,577.553,260.671" fill="rgb(0,0,0)" vector-effect="non-scaling-stroke" stroke-width="1" stroke="rgb(0,0,0)" stroke-linejoin="miter" stroke-linecap="square" stroke-miterlimit="3"/><text transform="matrix(1,0,0,1,666.2,53.475)" style="font-family:'Open Sans';font-weight:400;font-size:12px;font-style:normal;fill:#000000;stroke:none;">Výstupy</text><text transform="matrix(1,0,0,1,672,135.81)" style="font-family:'Open Sans';font-weight:400;font-size:12px;font-style:normal;fill:#000000;stroke:none;">Δ</text><text transform="matrix(1,0,0,1,365.375,230.304)" style="font-family:'Open Sans';font-weight:400;font-size:12px;font-style:normal;fill:#000000;stroke:none;">θ</text><text transform="matrix(1,0,0,1,221.539,79.368)" style="font-family:'Open Sans';font-weight:400;font-size:12px;font-style:normal;fill:#000000;stroke:none;">θ</text><text transform="matrix(1,0,0,1,689.37,114.826)" style="font-family:'Open Sans';font-weight:400;font-size:12px;font-style:normal;fill:#000000;stroke:none;">+</text><text transform="matrix(1,0,0,1,689.37,80.826)" style="font-family:'Open Sans';font-weight:400;font-size:12px;font-style:normal;fill:#000000;stroke:none;">+</text><text transform="matrix(1,0,0,1,537.041,284.826)" style="font-family:'Open Sans';font-weight:400;font-size:12px;font-style:normal;fill:#000000;stroke:none;">+</text><text transform="matrix(1,0,0,1,537.041,250.826)" style="font-family:'Open Sans';font-weight:400;font-size:12px;font-style:normal;fill:#000000;stroke:none;">+</text><text transform="matrix(1,0,0,1,589.248,260.087)" style="font-family:'Open Sans';font-weight:400;font-size:12px;font-style:normal;fill:#000000;stroke:none;">Upravené</text><text transform="matrix(1,0,0,1,595.107,276.429)" style="font-family:'Open Sans';font-weight:400;font-size:12px;font-style:normal;fill:#000000;stroke:none;">výstupy</text><text transform="matrix(1,0,0,1,506.428,223.304)" style="font-family:'Open Sans';font-weight:400;font-size:12px;font-style:normal;fill:#000000;stroke:none;">Výstupy</text><line x1="179.75" y1="234.825" x2="251.269" y2="234.825" vector-effect="non-scaling-stroke" stroke-width="1" stroke="rgb(0,0,0)" stroke-linejoin="miter" stroke-linecap="square" stroke-miterlimit="3"/><polygon points="255.725,234.375,251.338,237.829,251.153,231.171" fill="rgb(0,0,0)" vector-effect="non-scaling-stroke" stroke-width="1" stroke="rgb(0,0,0)" stroke-linejoin="miter" stroke-linecap="square" stroke-miterlimit="3"/><line x1="227" y1="294.375" x2="326.687" y2="294.825" vector-effect="non-scaling-stroke" stroke-width="1" stroke="rgb(0,0,0)" stroke-linejoin="miter" stroke-linecap="square" stroke-miterlimit="3"/><polygon points="331.144,294.375,326.757,297.829,326.572,291.171" fill="rgb(0,0,0)" vector-effect="non-scaling-stroke" stroke-width="1" stroke="rgb(0,0,0)" stroke-linejoin="miter" stroke-linecap="square" stroke-miterlimit="3"/><line x1="227" y1="293.5" x2="227" y2="234.5" vector-effect="non-scaling-stroke" stroke-width="1" stroke="rgb(0,0,0)" stroke-linejoin="miter" stroke-linecap="square" stroke-miterlimit="3"/><line x1="445.675" y1="185.339" x2="445.675" y2="209.544" vector-effect="non-scaling-stroke" stroke-width="1" stroke="rgb(0,0,0)" stroke-linejoin="miter" stroke-linecap="square" stroke-miterlimit="3"/><polygon points="446.125,214,442.671,209.613,449.329,209.428" fill="rgb(0,0,0)" vector-effect="non-scaling-stroke" stroke-width="1" stroke="rgb(0,0,0)" stroke-linejoin="miter" stroke-linecap="square" stroke-miterlimit="3"/><line x1="446" y1="185.339" x2="227" y2="185.339" vector-effect="non-scaling-stroke" stroke-width="1" stroke="rgb(0,0,0)" stroke-linejoin="miter" stroke-linecap="square" stroke-miterlimit="3"/><line x1="227" y1="234.5" x2="227" y2="185.339" vector-effect="non-scaling-stroke" stroke-width="1" stroke="rgb(0,0,0)" stroke-linejoin="miter" stroke-linecap="square" stroke-miterlimit="3"/><text transform="matrix(1,0,0,1,162,249.326)" style="font-family:'Open Sans';font-weight:400;font-size:12px;font-style:normal;fill:#000000;stroke:none;">Vstupy</text><text transform="matrix(1,0,0,1,429.886,306.133)" style="font-family:'Open Sans';font-weight:400;font-size:12px;font-style:normal;fill:#000000;stroke:none;">Δ</text><text transform="matrix(1,0,0,1,366.573,337.826)" style="font-family:'Open Sans';font-weight:400;font-size:12px;font-style:normal;fill:#000000;stroke:none;">c)</text></g></svg>